# File created by Blade
# Date/Time:  Wed Jan 21 18:34:41 2015
# Frame Rate: 120.000 fps
#------------------------------------------------------
:FULLY-SPECIFIED
:DEGREES
1436
root 2.619125 32.714125 -7.096703 44.113708 3.055184 1.384507
RightUpLeg -38.814380 -17.808037 8.947335
RightLeg -3.567553 -0.000000 0.000000
RightFoot -8.370343 -0.903611 22.658253
RightToeBase 21.854337 -0.000000 -0.000000
LeftUpLeg -40.569633 11.077820 -4.318892
LeftLeg 0.602409 -0.000000 -0.000000
LeftFoot -3.368313 -8.019446 -15.096395
LeftToeBase 3.387927 -0.000000 -0.000000
Spine -48.410650 0.528717 -2.879316
RightShoulder -18.471915 13.639319 -36.891104
RightArm -2.339495 -12.377682 56.312329
RightForeArm 18.668757 -0.000000 -3.355325
RightHand 3.360507 0.000000 22.317383
RightHandThumb1 -24.326973 -0.000000 -32.862282
LeftShoulder -9.715316 3.298965 31.272229
LeftArm 19.616815 -7.091632 -51.886343
LeftForeArm 12.661425 0.000000 -1.616529
LeftHand -18.577224 -0.000000 -13.792301
LeftHandThumb1 -26.253704 0.000000 33.147579
Head -1.844357 -2.351535 5.089063
1437
root 2.626362 32.716801 -7.093082 44.084119 3.090281 1.409123
RightUpLeg -38.780671 -17.856854 8.928964
RightLeg -3.565980 -0.000000 0.000000
RightFoot -8.360475 -0.918575 22.669798
RightToeBase 21.864483 -0.000000 -0.000000
LeftUpLeg -40.527619 11.058790 -4.339874
LeftLeg 0.582931 -0.000000 -0.000000
LeftFoot -3.327606 -8.047223 -15.095361
LeftToeBase 3.404851 -0.000000 -0.000000
Spine -48.401668 0.522519 -2.879568
RightShoulder -18.502527 13.819587 -37.445136
RightArm -2.001982 -12.191549 55.137344
RightForeArm 18.501342 -0.000000 -3.478141
RightHand 3.556873 0.000000 21.737791
RightHandThumb1 -24.326973 -0.000000 -32.862282
LeftShoulder -9.741894 3.082596 31.641107
LeftArm 19.709126 -7.527232 -50.837929
LeftForeArm 12.734755 -0.000000 -1.640857
LeftHand -18.674622 -0.000000 -13.657459
LeftHandThumb1 -26.253704 0.000000 33.147579
Head -1.672577 -2.439119 5.010084
1438
root 2.633558 32.718096 -7.090480 44.032609 3.166003 1.401155
RightUpLeg -38.696683 -17.828223 8.877555
RightLeg -3.561334 -0.000000 0.000000
RightFoot -8.398549 -1.035558 22.716724
RightToeBase 21.846438 -0.000000 -0.000000
LeftUpLeg -40.481692 11.038675 -4.307574
LeftLeg 0.585334 -0.000000 -0.000000
LeftFoot -3.305296 -8.076714 -15.073254
LeftToeBase 3.346018 -0.000000 -0.000000
Spine -48.370677 0.520167 -2.836161
RightShoulder -18.538041 14.090237 -38.026856
RightArm -1.746678 -12.031780 54.002346
RightForeArm 18.377357 -0.000000 -3.596614
RightHand 3.770176 -0.000000 20.883452
RightHandThumb1 -24.326973 -0.000000 -32.862282
LeftShoulder -9.781502 2.914321 32.030056
LeftArm 19.886062 -8.161460 -49.933737
LeftForeArm 13.001247 -0.000000 -1.702351
LeftHand -18.773077 -0.000000 -13.385665
LeftHandThumb1 -26.253704 0.000000 33.147579
Head -1.487002 -2.550400 4.941996
1439
root 2.640865 32.720678 -7.092762 44.010883 3.211505 1.423304
RightUpLeg -38.700677 -17.936001 8.920961
RightLeg -3.553403 -0.000000 0.000000
RightFoot -8.360781 -0.986398 22.687352
RightToeBase 21.870518 -0.000000 -0.000000
LeftUpLeg -40.469791 11.004313 -4.317849
LeftLeg 0.588202 -0.000000 -0.000000
LeftFoot -3.276076 -8.097457 -15.089063
LeftToeBase 3.406035 -0.000000 -0.000000
Spine -48.348367 0.509042 -2.826218
RightShoulder -18.585960 14.355598 -38.606796
RightArm -1.449456 -11.820965 52.875930
RightForeArm 18.057049 -0.000000 -3.710411
RightHand 4.093222 -0.000000 20.249479
RightHandThumb1 -24.326973 -0.000000 -32.862282
LeftShoulder -9.830079 2.714083 32.403136
LeftArm 20.034941 -8.762596 -49.013640
LeftForeArm 13.374278 -0.000000 -1.755124
LeftHand -18.884665 -0.000000 -13.257638
LeftHandThumb1 -26.253704 0.000000 33.147579
Head -1.348640 -2.656906 4.882089
1440
root 2.649710 32.723197 -7.091942 43.965001 3.250531 1.443129
RightUpLeg -38.654279 -17.997737 8.913101
RightLeg -3.552331 -0.000000 0.000000
RightFoot -8.335475 -1.003052 22.653999
RightToeBase 21.772785 -0.000000 -0.000000
LeftUpLeg -40.415367 10.971470 -4.321301
LeftLeg 0.572339 -0.000000 -0.000000
LeftFoot -3.241063 -8.111114 -15.074541
LeftToeBase 3.415808 -0.000000 -0.000000
Spine -48.311525 0.499080 -2.810582
RightShoulder -18.621404 14.684576 -39.189040
RightArm -1.201386 -11.588650 51.760012
RightForeArm 17.557718 -0.000000 -3.824667
RightHand 4.451653 0.000000 19.516567
RightHandThumb1 -24.326973 -0.000000 -32.862282
LeftShoulder -9.891037 2.471612 32.756849
LeftArm 20.154144 -9.321261 -48.077358
LeftForeArm 13.631946 0.000000 -1.796227
LeftHand -19.060216 -0.000000 -13.060283
LeftHandThumb1 -26.253704 0.000000 33.147579
Head -1.188223 -2.738252 4.832274
